<svg width="276" height="393" viewBox="0 0 276 393" fill="none" xmlns="http://www.w3.org/2000/svg">
<g filter="url(#filter0_d_244_66)">
<path d="M145.95 101.998C169.843 101.998 191.176 108.142 209.95 120.43C229.064 132.377 244.083 148.931 255.006 170.094C266.27 191.257 271.902 215.833 271.902 243.822C271.902 271.811 266.27 296.558 255.006 318.062C244.083 339.225 229.235 355.95 210.462 368.238C192.03 380.185 171.208 386.158 147.998 386.158C134.344 386.158 121.544 383.939 109.598 379.502C97.651 375.065 87.0697 369.433 77.8537 362.606C68.979 355.779 61.9817 348.953 56.8617 342.126C52.083 334.958 49.6937 328.985 49.6937 324.206L65.5657 317.55V354.926C65.5657 363.801 62.6644 371.31 56.8617 377.454C51.059 383.257 43.7204 386.158 34.8457 386.158C25.971 386.158 18.6324 383.257 12.8297 377.454C7.02704 371.651 4.12571 364.142 4.12571 354.926V33.3901C4.12571 24.5154 7.02704 17.1767 12.8297 11.3741C18.6324 5.23007 25.971 2.15808 34.8457 2.15808C43.7204 2.15808 51.059 5.23007 56.8617 11.3741C62.6644 17.1767 65.5657 24.5154 65.5657 33.3901V163.438L56.8617 158.83C56.8617 154.393 59.251 149.102 64.0297 142.958C68.8084 136.473 75.2937 130.158 83.4857 124.014C91.6777 117.529 101.064 112.238 111.646 108.142C122.568 104.046 134.003 101.998 145.95 101.998ZM138.27 158.318C123.251 158.318 110.11 162.073 98.8457 169.582C87.5817 177.091 78.707 187.331 72.2217 200.302C66.0777 212.931 63.0057 227.438 63.0057 243.822C63.0057 259.865 66.0777 274.542 72.2217 287.854C78.707 300.825 87.5817 311.065 98.8457 318.574C110.11 326.083 123.251 329.838 138.27 329.838C153.288 329.838 166.259 326.083 177.182 318.574C188.446 311.065 197.15 300.825 203.294 287.854C209.779 274.542 213.022 259.865 213.022 243.822C213.022 227.438 209.779 212.931 203.294 200.302C197.15 187.331 188.446 177.091 177.182 169.582C166.259 162.073 153.288 158.318 138.27 158.318Z" fill="#FFB800"/>
</g>
<defs>
<filter id="filter0_d_244_66" x="0.125488" y="0.158081" width="275.776" height="392" filterUnits="userSpaceOnUse" color-interpolation-filters="sRGB">
<feFlood flood-opacity="0" result="BackgroundImageFix"/>
<feColorMatrix in="SourceAlpha" type="matrix" values="0 0 0 0 0 0 0 0 0 0 0 0 0 0 0 0 0 0 127 0" result="hardAlpha"/>
<feOffset dy="2"/>
<feGaussianBlur stdDeviation="2"/>
<feComposite in2="hardAlpha" operator="out"/>
<feColorMatrix type="matrix" values="0 0 0 0 0 0 0 0 0 0 0 0 0 0 0 0 0 0 0.25 0"/>
<feBlend mode="normal" in2="BackgroundImageFix" result="effect1_dropShadow_244_66"/>
<feBlend mode="normal" in="SourceGraphic" in2="effect1_dropShadow_244_66" result="shape"/>
</filter>
</defs>
</svg>
